<?xml version="1.0" encoding="UTF-8"?>
<svg width="1002px" height="1085px" viewBox="0 0 1002 1085" version="1.1" xmlns="http://www.w3.org/2000/svg" xmlns:xlink="http://www.w3.org/1999/xlink">
    <g id="1.2.1-Bill-Creator-(Filled-State---Exact-Option)" stroke="none" stroke-width="1" fill="none" fill-rule="evenodd" transform="translate(-219.000000, -336.000000)">
        <g id="Body" transform="translate(114.000000, 268.000000)">
            <g id="Background-Illustration">
                <g id="Group" fill="#00F2A9">
                    <g id="Group-2">
                        <g id="Splash" transform="translate(606.562879, 606.635172) rotate(-45.000000) translate(-606.562879, -606.635172) translate(-120.437121, 476.635172)">
                            <path d="M1356.5,85 L1173.5,85 C1163.875,85 1156,92.875 1156,102.5 C1156,112.125 1163.875,120 1173.5,120 L1257.5,120 C1267.125,120 1275,127.875 1275,137.5 C1275,147.125 1267.125,155 1257.5,155 L1226.5,155 C1216.875,155 1209,162.875 1209,172.5 C1209,182.125 1216.875,190 1226.5,190 L1341.5,190 C1351.125,190 1359,182.125 1359,172.5 C1359,162.875 1351.125,155 1341.5,155 L1327.5,155 C1317.875,155 1310,147.125 1310,137.5 C1310,127.875 1317.875,120 1327.5,120 L1356.5,120 C1366.125,120 1374,112.125 1374,102.5 C1374,92.875 1366.125,85 1356.5,85" id="Fill-1"></path>
                            <path d="M280.937376,68.5 L97.9373763,68.5 C88.3123763,68.5 80.4373763,76.375 80.4373763,86 C80.4373763,95.625 88.3123763,103.5 97.9373763,103.5 L181.937376,103.5 C191.562376,103.5 199.437376,111.375 199.437376,121 C199.437376,130.625 191.562376,138.5 181.937376,138.5 L150.937376,138.5 C141.312376,138.5 133.437376,146.375 133.437376,156 C133.437376,165.625 141.312376,173.5 150.937376,173.5 L265.937376,173.5 C275.562376,173.5 283.437376,165.625 283.437376,156 C283.437376,146.375 275.562376,138.5 265.937376,138.5 L251.937376,138.5 C242.312376,138.5 234.437376,130.625 234.437376,121 C234.437376,111.375 242.312376,103.5 251.937376,103.5 L280.937376,103.5 C290.562376,103.5 298.437376,95.625 298.437376,86 C298.437376,76.375 290.562376,68.5 280.937376,68.5" id="Fill-1" transform="translate(189.437376, 121.000000) rotate(-180.000000) translate(-189.437376, -121.000000) "></path>
                            <path d="M1165.5,156 L1146.5,156 C1136.875,156 1129,163.875 1129,173.5 C1129,183.125 1136.875,191 1146.5,191 L1165.5,191 C1175.125,191 1183,183.125 1183,173.5 C1183,163.875 1175.125,156 1165.5,156" id="Fill-5"></path>
                            <rect id="x" transform="translate(663.500000, 242.134016) rotate(-360.000000) translate(-663.500000, -242.134016) " x="74" y="224.634016" width="1179" height="35" rx="17.5"></rect>
                            <rect id="x" transform="translate(1427.000000, 103.500000) rotate(-360.000000) translate(-1427.000000, -103.500000) " x="1400" y="86" width="54" height="35" rx="17.5"></rect>
                            <rect id="x" transform="translate(27.701590, 155.000000) rotate(-360.000000) translate(-27.701590, -155.000000) " x="0.701590387" y="137.5" width="54" height="35" rx="17.5"></rect>
                            <rect id="x" transform="translate(768.937376, 17.500000) rotate(-360.000000) translate(-768.937376, -17.500000) " x="189.437376" y="-4.54747351e-13" width="1159" height="35" rx="17.5"></rect>
                        </g>
                    </g>
                </g>
                <g id="LeftSide-Floaters" transform="translate(99.000000, 931.000000)">
                    <rect id="Rectangle-7" stroke="#6988FF" stroke-width="6" transform="translate(110.142136, 185.142136) rotate(-45.000000) translate(-110.142136, -185.142136) " x="103.142136" y="178.142136" width="14" height="14" rx="2"></rect>
                    <circle id="Oval-4" stroke="#6988FF" stroke-width="6" cx="41" cy="10" r="7"></circle>
                    <path d="M24.3249094,118.129839 L18.4458893,118.129839 L18.4458893,112.250819 C18.4458893,110.806448 17.2327666,109.624158 15.7878641,109.624158 C14.3429616,109.624158 13.1298389,110.806448 13.1298389,112.250819 L13.1298389,118.129839 L7.25081881,118.129839 C5.80644793,118.129839 4.62415833,119.342962 4.62415833,120.787864 C4.62415833,122.232767 5.80644793,123.445889 7.25081881,123.445889 L13.1298389,123.445889 L13.1298389,129.324909 C13.1298389,130.76928 14.3429616,131.95157 15.7878641,131.95157 C17.2327666,131.95157 18.4458893,130.76928 18.4458893,129.324909 L18.4458893,123.445889 L24.3249094,123.445889 C25.7692802,123.445889 26.9515698,122.232767 26.9515698,120.787864 C26.9515698,119.342962 25.7692802,118.129839 24.3249094,118.129839 Z" id="Shape" fill="#6988FF" fill-rule="nonzero" transform="translate(15.787864, 120.787864) rotate(45.000000) translate(-15.787864, -120.787864) "></path>
                </g>
                <g id="RightSide-Floaters" transform="translate(991.000000, 73.000000)">
                    <rect id="Rectangle-7" stroke="#6988FF" stroke-width="6" transform="translate(14.142136, 14.142136) rotate(-45.000000) translate(-14.142136, -14.142136) " x="7.14213562" y="7.14213562" width="14" height="14" rx="2"></rect>
                    <circle id="Oval-4" stroke="#6988FF" stroke-width="6" cx="100" cy="73" r="7"></circle>
                    <path d="M108.324909,210.129839 L102.445889,210.129839 L102.445889,204.250819 C102.445889,202.806448 101.232767,201.624158 99.7878641,201.624158 C98.3429616,201.624158 97.1298389,202.806448 97.1298389,204.250819 L97.1298389,210.129839 L91.2508188,210.129839 C89.8064479,210.129839 88.6241583,211.342962 88.6241583,212.787864 C88.6241583,214.232767 89.8064479,215.445889 91.2508188,215.445889 L97.1298389,215.445889 L97.1298389,221.324909 C97.1298389,222.76928 98.3429616,223.95157 99.7878641,223.95157 C101.232767,223.95157 102.445889,222.76928 102.445889,221.324909 L102.445889,215.445889 L108.324909,215.445889 C109.76928,215.445889 110.95157,214.232767 110.95157,212.787864 C110.95157,211.342962 109.76928,210.129839 108.324909,210.129839 Z" id="Shape" fill="#6988FF" fill-rule="nonzero" transform="translate(99.787864, 212.787864) rotate(45.000000) translate(-99.787864, -212.787864) "></path>
                </g>
            </g>
        </g>
    </g>
</svg>