<?xml version="1.0" encoding="UTF-8"?>
<svg width="34px" height="39px" viewBox="0 0 34 39" version="1.1" xmlns="http://www.w3.org/2000/svg" xmlns:xlink="http://www.w3.org/1999/xlink">
    <defs>
        <polygon id="path-1" points="0 0.003 27.999 0.003 27.999 33 0 33"></polygon>
        <polygon id="path-3" points="0.3482 0.0025 22.345 0.0025 22.345 22 0.3482 22"></polygon>
    </defs>
    <g id="Components/DropArea/Attached" stroke="none" stroke-width="1" fill="none" fill-rule="evenodd" transform="translate(-277.000000, -26.000000)">
        <g id="Icons/AreaDropped">
            <g transform="translate(277.000000, 25.000000)">
                <g id="Icons/DropArea">
                    <g id="Group-3" transform="translate(0.000000, 0.997500)">
                        <mask id="mask-2" fill="white">
                            <use xlink:href="#path-1"></use>
                        </mask>
                        <g id="Clip-2"></g>
                        <path d="M12.998,20.002 L20.997,20.002 C21.551,20.002 21.998,20.453 21.998,21.002 C21.998,21.556 21.551,22.003 20.997,22.003 L12.998,22.003 C12.448,22.003 11.998,21.556 11.998,21.002 C11.998,20.453 12.448,20.002 12.998,20.002 Z M14.998,18.002 C14.445,18.002 13.998,17.555 13.998,17.005 C13.998,16.451 14.445,16.004 14.998,16.004 L19,16.004 C19.55,16.004 19.997,16.451 19.997,17.005 C19.997,17.555 19.55,18.002 19,18.002 L14.998,18.002 Z M12.998,12.003 L20.997,12.003 C21.551,12.003 21.998,12.45 21.998,13.003 C21.998,13.557 21.551,14.003 20.997,14.003 L12.998,14.003 C12.448,14.003 11.998,13.557 11.998,13.003 C11.998,12.45 12.448,12.003 12.998,12.003 Z M25.999,10.002 L19.997,10.002 C18.893,10.002 17.999,9.109 17.999,8.002 L17.999,2.003 L7.999,2.003 L7.999,26.004 L25.999,26.004 L25.999,10.002 Z M19.997,2.003 L19.997,8.002 L25.999,8.002 L19.997,2.003 Z M5.999,26.004 L5.999,6.004 L1.998,6.004 L1.998,30.999 L19.997,30.999 L19.997,28.002 L7.999,28.002 C6.895,28.002 5.999,27.109 5.999,26.004 Z M25.999,28.002 L21.998,28.002 L21.998,30.999 C21.998,32.103 21.104,33 19.997,33 L1.998,33 C0.894,33 0,32.103 0,30.999 L0,6.004 C0,4.9 0.894,4.003 1.998,4.003 L5.999,4.003 L5.999,2.003 C5.999,0.899 6.895,0.002 7.999,0.002 L17.999,0.002 L19.997,0.002 L27.999,8.002 L27.999,10.002 L27.999,13.003 L27.999,26.004 C27.999,27.109 27.103,28.002 25.999,28.002 Z" id="Fill-1" fill="#1C4BFB" mask="url(#mask-2)"></path>
                    </g>
                    <path d="M29.5634,28.999 C29.5634,32.984 26.3324,36.215 22.3464,36.215 C18.3614,36.215 15.1304,32.984 15.1304,28.999 C15.1304,25.014 18.3614,21.783 22.3464,21.783 C26.3324,21.783 29.5634,25.014 29.5634,28.999" id="Fill-4" fill="#FFFFFF"></path>
                    <g id="Group-8" transform="translate(11.000000, 17.997500)">
                        <mask id="mask-4" fill="white">
                            <use xlink:href="#path-3"></use>
                        </mask>
                        <g id="Clip-7"></g>
                        <path d="M22.3452,11.0015 C22.3452,17.0755 17.4212,22.0005 11.3462,22.0005 C5.2722,22.0005 0.3482,17.0755 0.3482,11.0015 C0.3482,4.9275 5.2722,0.0025 11.3462,0.0025 C17.4212,0.0025 22.3452,4.9275 22.3452,11.0015" id="Fill-6" fill="#FFFFFF" mask="url(#mask-4)"></path>
                    </g>
                    <path d="M15.3476,28.9995 C15.3476,32.8645 18.4806,35.9985 22.3466,35.9985 C26.2116,35.9985 29.3496,32.8645 29.3496,28.9995 C29.3496,25.1335 26.2116,21.9965 22.3466,21.9965 C18.4806,21.9965 15.3476,25.1335 15.3476,28.9995 Z M13.3476,28.9995 C13.3476,24.0295 17.3766,19.9995 22.3466,19.9995 C27.3206,19.9995 31.3466,24.0295 31.3466,28.9995 C31.3466,33.9685 27.3206,37.9985 22.3466,37.9985 C17.3766,37.9985 13.3476,33.9685 13.3476,28.9995 Z" id="Fill-9" fill="#1C4BFB"></path>
                    <path d="M22.1686178,31.726308 C21.8512505,32.0436752 21.3362946,32.0436752 21.0190805,31.726308 L19.2380254,29.9452528 C18.9206582,29.6280388 18.9206582,29.1130829 19.2380254,28.7958688 C19.5552395,28.4785016 20.0701954,28.4785016 20.3875626,28.7958688 L21.448721,29.856874 C21.5288287,29.9368285 21.6588696,29.9368285 21.7391304,29.856874 L24.6124374,26.9835671 C24.9296514,26.6661999 25.4446073,26.6661999 25.7619746,26.9835671 C25.9143782,27.1359708 26,27.3427496 26,27.5582591 C26,27.7737686 25.9143782,27.9805475 25.7619746,28.1329511 L22.1686178,31.726308 Z" id="Shape" fill="#1C4BFB" fill-rule="nonzero"></path>
                </g>
            </g>
        </g>
    </g>
</svg>