<?xml version="1.0" encoding="UTF-8"?>
<svg width="30px" height="36px" viewBox="0 0 30 36" version="1.1" xmlns="http://www.w3.org/2000/svg" xmlns:xlink="http://www.w3.org/1999/xlink">
    <g id="1.0.0-Bill-Creator-(Initial-State)" stroke="none" stroke-width="1" fill="none" fill-rule="evenodd" transform="translate(-425.000000, -1342.000000)">
        <g id="Content" transform="translate(424.000000, 150.000000)">
            <g id="###-Additional-Info" transform="translate(0.000000, 969.000000)">
                <g id="Notes" transform="translate(1.000000, 223.000000)">
                    <g id="file">
                        <g>
                            <path d="M30,12.6388889 L22.5,3.88888889 L22.5,9.72222222 C22.5,11.3263889 23.625,12.6388889 25,12.6388889 L30,12.6388889 Z" id="Shape" fill="#00F2A9" fill-rule="nonzero"></path>
                            <g id="Group" fill="#191B44" fill-rule="nonzero">
                                <path d="M22.44,0.0704022989 C22.32,0.0704022989 22.26,0.0704022989 22.2,-2.22044605e-16 C22.2,-2.22044605e-16 15.8,-2.22044605e-16 3,-2.22044605e-16 C1.32,-2.02504042e-16 0,1.54885057 0,3.52011494 L0,31.4978638 C0,33.4691281 1.32,35.0179787 3,35.0179787 L27,35.0179787 C28.68,35.0179787 30,33.4691281 30,31.4978638 L30,9.15229885 C30,9.01149425 30,8.94109195 29.94,8.87068966 C29.94,8.72988506 29.88,8.65948276 29.82,8.58908046 L22.62,0.211206897 C22.56,0.140804598 22.5,0.140804598 22.44,0.0704022989 Z M27,33.6099327 L3,33.6099327 C1.98,33.6099327 1.2,32.6947028 1.2,31.4978638 L1.2,3.52011494 C1.2,2.32327586 1.98,1.40804598 3,1.40804598 L21.6,1.40804598 L21.6,6.3362069 C21.6,8.30747126 22.92,9.85632184 24.6,9.85632184 L28.8,9.85632184 L28.8,31.4978638 C28.8,32.6947028 28.02,33.6099327 27,33.6099327 Z M24.6,8.44827586 C23.58,8.44827586 22.8,7.53304598 22.8,6.3362069 L22.8,2.39367816 L27.96,8.44827586 L24.6,8.44827586 Z" id="Shape"></path>
                                <path d="M5.4,12.6724138 L12.6,12.6724138 C12.96,12.6724138 13.2,12.3908046 13.2,11.9683908 C13.2,11.545977 12.96,11.2643678 12.6,11.2643678 L5.4,11.2643678 C5.04,11.2643678 4.8,11.545977 4.8,11.9683908 C4.8,12.3908046 5.04,12.6724138 5.4,12.6724138 Z" id="Shape"></path>
                                <path d="M5.4,18.3045977 L19.8,18.3045977 C20.16,18.3045977 20.4,18.0229885 20.4,17.6005747 C20.4,17.1781609 20.16,16.8965517 19.8,16.8965517 L5.4,16.8965517 C5.04,16.8965517 4.8,17.1781609 4.8,17.6005747 C4.8,18.0229885 5.04,18.3045977 5.4,18.3045977 Z" id="Shape"></path>
                                <path d="M24.6,16.8965517 L22.2,16.8965517 C21.84,16.8965517 21.6,17.1781609 21.6,17.6005747 C21.6,18.0229885 21.84,18.3045977 22.2,18.3045977 L24.6,18.3045977 C24.96,18.3045977 25.2,18.0229885 25.2,17.6005747 C25.2,17.1781609 24.96,16.8965517 24.6,16.8965517 Z" id="Shape"></path>
                                <path d="M5.4,23.9367816 L17.4,23.9367816 C17.76,23.9367816 18,23.6551724 18,23.2327586 C18,22.8103448 17.76,22.5287356 17.4,22.5287356 L5.4,22.5287356 C5.04,22.5287356 4.8,22.8103448 4.8,23.2327586 C4.8,23.6551724 5.04,23.9367816 5.4,23.9367816 Z" id="Shape"></path>
                                <path d="M24.6,22.5287356 L19.8,22.5287356 C19.44,22.5287356 19.2,22.8103448 19.2,23.2327586 C19.2,23.6551724 19.44,23.9367816 19.8,23.9367816 L24.6,23.9367816 C24.96,23.9367816 25.2,23.6551724 25.2,23.2327586 C25.2,22.8103448 24.96,22.5287356 24.6,22.5287356 Z" id="Shape"></path>
                                <path d="M24.6,28.1609195 L5.4,28.1609195 C5.04,28.1609195 4.8,28.4425287 4.8,28.8649425 C4.8,29.2873563 5.04,29.5689655 5.4,29.5689655 L24.6,29.5689655 C24.96,29.5689655 25.2,29.2873563 25.2,28.8649425 C25.2,28.4425287 24.96,28.1609195 24.6,28.1609195 Z" id="Shape"></path>
                            </g>
                        </g>
                    </g>
                </g>
            </g>
        </g>
    </g>
</svg>