<?xml version="1.0" encoding="UTF-8"?>
<svg width="30px" height="30px" viewBox="0 0 30 30" version="1.1" xmlns="http://www.w3.org/2000/svg" xmlns:xlink="http://www.w3.org/1999/xlink">
    <g id="1.0.0-Bill-Creator-(Initial-State)" stroke="none" stroke-width="1" fill="none" fill-rule="evenodd" transform="translate(-425.000000, -314.000000)">
        <g id="Content" transform="translate(424.000000, 150.000000)">
            <g id="###-Bill-Description-Section" transform="translate(1.000000, 103.000000)">
                <g id="Bill's-Title" transform="translate(0.000000, 61.000000)">
                    <g id="invoice">
                        <g>
                            <ellipse id="Oval" fill="#00F2A9" fill-rule="nonzero" cx="15.1018676" cy="18.336163" rx="6.49405772" ry="6.11205433"></ellipse>
                            <path d="M15.1016344,22.9202037 C18.6982142,22.9202037 21.595459,20.0228549 21.595459,16.426146 C21.595459,12.8294371 18.6982142,9.93208829 15.1016344,9.93208829 C11.5050547,9.93208829 8.60780985,12.8294371 8.60780985,16.426146 C8.60780985,20.0228549 11.5050547,22.9202037 15.1016344,22.9202037 Z M15.1016344,10.9311741 C18.1487367,10.9311741 20.5964091,13.3789343 20.5964091,16.426146 C20.5964091,19.4733577 18.1487367,21.9211179 15.1016344,21.9211179 C12.0545321,21.9211179 9.60685978,19.4733577 9.60685978,16.426146 C9.60685978,13.3789343 12.0545321,10.9311741 15.1016344,10.9311741 Z" id="Shape" fill="#191B44" fill-rule="nonzero"></path>
                            <path d="M16.1714771,17.5721562 L12.9626486,17.5721562 C12.6417657,17.5721562 12.4278438,17.7758913 12.4278438,18.0814941 C12.4278438,18.3870968 12.6417657,18.5908319 12.9626486,18.5908319 L14.5670628,18.5908319 L14.5670628,20.1188455 C14.5670628,20.4244482 14.7809847,20.6281834 15.1018676,20.6281834 C15.4227504,20.6281834 15.6366723,20.4244482 15.6366723,20.1188455 L15.6366723,18.5908319 L16.1714771,18.5908319 C17.0806452,18.5908319 17.7758913,17.9286927 17.7758913,17.0628183 C17.7758913,16.196944 17.0806452,15.5348048 16.1714771,15.5348048 L14.0322581,15.5348048 C13.7113752,15.5348048 13.4974533,15.3310696 13.4974533,15.0254669 C13.4974533,14.7198642 13.7113752,14.516129 14.0322581,14.516129 L17.2410866,14.516129 C17.5619694,14.516129 17.7758913,14.3123939 17.7758913,14.0067912 C17.7758913,13.7011885 17.5619694,13.4974533 17.2410866,13.4974533 L15.6366723,13.4974533 L15.6366723,11.9694397 C15.6366723,11.663837 15.4227504,11.4601019 15.1018676,11.4601019 C14.7809847,11.4601019 14.5670628,11.663837 14.5670628,11.9694397 L14.5670628,13.4974533 L14.0322581,13.4974533 C13.12309,13.4974533 12.4278438,14.1595925 12.4278438,15.0254669 C12.4278438,15.8913413 13.12309,16.5534805 14.0322581,16.5534805 L16.1714771,16.5534805 C16.4923599,16.5534805 16.7062818,16.7572156 16.7062818,17.0628183 C16.7062818,17.3684211 16.4923599,17.5721562 16.1714771,17.5721562 Z" id="Shape" fill="#191B44" fill-rule="nonzero"></path>
                            <path d="M28.7913612,0.362823345 C29.1560123,-0.00672522377 29.7853141,0.251484532 29.7853141,0.77065365 L29.7853141,29.2360187 C29.7853141,29.7544608 29.1575156,30.0130049 28.7924198,29.6449189 L27.8613838,28.7062497 L27.1915784,28.036918 L25.5857974,29.6420906 C25.3590895,29.8687126 24.9916252,29.8687473 24.7648745,29.6421682 L23.1568689,28.0353799 L21.5480217,29.6436185 C21.3212531,29.8703013 20.9536688,29.8702665 20.7269431,29.6435408 L19.1334533,28.050051 L17.5362216,29.6466749 C17.3094832,29.873327 16.9419592,29.8733268 16.7152211,29.6466745 L15.1056873,28.0377495 L13.5030299,29.6397987 C13.2762917,29.8664508 12.9087678,29.8664508 12.6820296,29.6397988 L11.0815861,28.0399633 L9.47816422,29.6421686 C9.25141322,29.8687475 8.88394883,29.8687124 8.65724115,29.6420901 L7.03753595,28.022995 L5.40354627,29.64233 C5.1772542,29.8665926 4.81252172,29.8666305 4.586183,29.642415 L2.9633435,28.0347992 L1.3809724,29.6378152 C1.01628865,30.0072569 0.387096774,29.7490226 0.387096774,29.2299066 L0.387096774,0.764541596 C0.387096774,0.246090067 1.01491471,-0.0124497301 1.38000481,0.355655154 L2.30338815,1.28667167 L2.98151975,1.96432738 L4.58729963,0.358547506 C4.81405567,0.131791465 5.18169985,0.131791465 5.40845589,0.358547506 L7.01561969,1.96571131 L8.62431151,0.357019492 C8.85106755,0.130263452 9.21871173,0.130263452 9.44546777,0.357019492 L11.0395653,1.95111704 L12.636033,0.354041603 C12.8627764,0.127211898 13.2304809,0.127176912 13.4572674,0.353963465 L15.0667233,1.96341929 L16.669303,0.360839526 C16.8960286,0.134113939 17.2636126,0.134079031 17.4903813,0.360761551 L19.0914331,1.96120524 L20.6940908,0.358547506 C20.9208468,0.131791465 21.288491,0.131791465 21.5152471,0.358547506 L23.1349516,1.978252 L24.7696279,0.358230943 C24.9959805,0.133907686 25.3608323,0.133938202 25.5871474,0.35829932 L27.2091432,1.96629144 L28.7913612,0.362823345 Z M27.6269749,3.19622589 C27.4013645,3.42486638 27.0329861,3.42689357 26.804873,3.20074992 L25.1782848,1.58820503 L23.5418322,3.20998637 C23.3147823,3.4350007 22.9485632,3.4341762 22.7225288,3.2081418 L21.1046689,1.5902819 L19.5020892,3.19286166 C19.2753636,3.41958725 18.9077795,3.41962216 18.6810109,3.19293964 L17.0799591,1.59249594 L15.4773014,3.19515368 C15.2505454,3.42190972 14.8829012,3.42190972 14.6561451,3.19515368 L13.0467674,1.585776 L11.4502997,3.18285144 C11.2235563,3.40968114 10.8558519,3.40971613 10.6290653,3.18292957 L9.03488964,1.58875389 L7.42619783,3.1974457 C7.19944179,3.42420174 6.8317976,3.42420174 6.60504156,3.1974457 L4.99787776,1.5902819 L3.39224197,3.19591769 C3.16554221,3.42261745 2.79800916,3.42268195 2.57122984,3.19606178 L1.5483871,2.17392915 L1.5483871,27.8151555 L2.54551317,26.8050201 C2.77107662,26.5765138 3.1392753,26.5744531 3.36738236,26.8004203 L4.99473671,28.4125086 L6.63057937,26.7913372 C6.85759906,26.5663536 7.22375817,26.5671438 7.44980469,26.7931052 L9.06782039,28.4105114 L10.6712416,26.8083068 C10.8979923,26.5817281 11.2654562,26.581763 11.4921639,26.8083846 L13.0925296,28.4081422 L14.6951874,26.8060927 C14.9219257,26.5794404 15.2894499,26.5794405 15.5161881,26.8060929 L17.125722,28.4150182 L18.7230314,26.8183166 C18.9498001,26.5916342 19.317384,26.5916692 19.5441095,26.8183947 L21.1375989,28.4118841 L22.7462907,26.8038009 C22.9729986,26.5771788 23.340463,26.577144 23.5672138,26.8037231 L25.1752195,28.4105115 L26.7810107,26.8053288 C27.0077226,26.5787028 27.3751948,26.5786726 27.6019439,26.8052614 L28.6240238,27.826626 L28.6240238,2.18578613 L27.6269749,3.19622589 Z" id="Page-1" fill="#191B44" fill-rule="nonzero"></path>
                            <path d="M6.92157178,6.11205433 L15.6478777,6.11205433 C15.9792486,6.11205433 16.2478778,6.38068349 16.2478778,6.71205435 L16.2478778,6.71205435 C16.2478778,7.04342522 15.9792486,7.31205438 15.6478777,7.31205438 L6.92157178,7.31205438 C6.59020091,7.31205438 6.32157175,7.04342522 6.32157175,6.71205435 L6.32157175,6.71205435 C6.32157175,6.38068349 6.59020091,6.11205433 6.92157178,6.11205433 Z" id="Rectangle-8" fill="#191B44"></path>
                            <rect id="Rectangle-8" fill="#191B44" x="17.7758913" y="6.11205433" width="4.58404075" height="1.20000005" rx="0.600000024"></rect>
                        </g>
                    </g>
                </g>
            </g>
        </g>
    </g>
</svg>