<?xml version="1.0" encoding="UTF-8"?>
<svg width="30px" height="29px" viewBox="0 0 30 29" version="1.1" xmlns="http://www.w3.org/2000/svg" xmlns:xlink="http://www.w3.org/1999/xlink">
    <g id="1.0.0-Bill-Creator-(Initial-State)" stroke="none" stroke-width="1" fill="none" fill-rule="evenodd" transform="translate(-425.000000, -388.000000)">
        <g id="Content" transform="translate(424.000000, 150.000000)">
            <g id="###-Bill-Description-Section" transform="translate(1.000000, 103.000000)">
                <g id="Backer's-Account-No" transform="translate(0.000000, 134.000000)">
                    <g id="piggy-bank" transform="translate(0.000000, 1.000000)">
                        <g transform="translate(0.000000, 0.966667)">
                            <ellipse id="Oval" fill="#00F2A9" fill-rule="nonzero" cx="10.1612903" cy="7.01612903" rx="5.32258065" ry="5.14516129"></ellipse>
                            <path d="M22.2413793,12.0573477 C21.362069,12.0573477 20.6896552,12.710454 20.6896552,13.5645161 C20.6896552,14.4185783 21.362069,15.0716846 22.2413793,15.0716846 C23.1206897,15.0716846 23.7931034,14.4185783 23.7931034,13.5645161 C23.7931034,12.710454 23.1206897,12.0573477 22.2413793,12.0573477 Z M22.2413793,14.0669056 C21.9310345,14.0669056 21.7241379,13.8659498 21.7241379,13.5645161 C21.7241379,13.2630824 21.9310345,13.0621266 22.2413793,13.0621266 C22.5517241,13.0621266 22.7586207,13.2630824 22.7586207,13.5645161 C22.7586207,13.8659498 22.5517241,14.0669056 22.2413793,14.0669056 Z" id="Shape" fill="#191B44" fill-rule="nonzero"></path>
                            <path d="M15,24.1146953 C9.67241379,24.1146953 5.17241379,20.6482079 5.17241379,16.578853 C5.17241379,16.2774194 4.96551724,16.0764636 4.65517241,16.0764636 C4.34482759,16.0764636 4.13793103,16.2774194 4.13793103,16.578853 C4.13793103,21.2008363 9.10344828,25.1194743 15,25.1194743 C15.3103448,25.1194743 15.5172414,24.9185185 15.5172414,24.6170848 C15.5172414,24.3156511 15.3103448,24.1146953 15,24.1146953 Z" id="Shape" fill="#191B44" fill-rule="nonzero"></path>
                            <path d="M9.82758621,11.0525687 C12.9827586,11.0525687 15.5172414,8.59086022 15.5172414,5.52628435 C15.5172414,2.46170848 12.9827586,0 9.82758621,0 C6.67241379,0 4.13793103,2.46170848 4.13793103,5.52628435 C4.13793103,8.59086022 6.67241379,11.0525687 9.82758621,11.0525687 Z M9.82758621,1.00477897 C12.4137931,1.00477897 14.4827586,3.01433692 14.4827586,5.52628435 C14.4827586,8.03823178 12.4137931,10.0477897 9.82758621,10.0477897 C7.24137931,10.0477897 5.17241379,8.03823178 5.17241379,5.52628435 C5.17241379,3.01433692 7.24137931,1.00477897 9.82758621,1.00477897 Z" id="Shape" fill="#191B44" fill-rule="nonzero"></path>
                            <path d="M28.4482759,14.0669056 L27.9310345,14.0669056 C27.7241379,14.0669056 27.5172414,13.9161888 27.4655172,13.715233 C26.5862069,11.1530466 24.5172414,8.94253286 21.7241379,7.53584229 L21.7241379,4.52150538 C21.7241379,4.32054958 21.6206897,4.11959379 21.4137931,4.06935484 C21.2068966,3.96887694 21,4.01911589 20.8448276,4.16983274 L18.5172414,6.43058542 C18.0517241,6.33010753 17.5344828,6.22962963 17.0689655,6.17939068 C16.8103448,6.12915173 16.5517241,6.33010753 16.5,6.58130227 C15.9310345,9.74635603 13.137931,12.0573477 9.82758621,12.0573477 C8.12068966,12.0573477 6.51724138,11.4544803 5.27586207,10.3492234 C5.17241379,10.2487455 5.01724138,10.1985066 4.9137931,10.1985066 C4.75862069,10.1985066 4.65517241,10.2487455 4.55172414,10.3492234 C3.05172414,12.0573477 2.22413793,14.0166667 2.06896552,16.0764636 C1.86206897,16.0262246 1.60344828,15.9257467 1.44827586,15.7247909 C1.18965517,15.4735962 1.03448276,15.0716846 1.03448276,14.5692951 L1.03448276,12.5597372 C1.03448276,12.5597372 1.03448276,12.5597372 1.03448276,12.5094982 C1.03448276,12.4592593 1.03448276,11.8563919 1.39655172,11.4042413 C1.65517241,11.2032855 2.06896552,11.0525687 2.5862069,11.0525687 C2.89655172,11.0525687 3.10344828,10.8516129 3.10344828,10.5501792 C3.10344828,10.2487455 2.89655172,10.0477897 2.5862069,10.0477897 C1.75862069,10.0477897 1.13793103,10.2989845 0.672413793,10.751135 C0,11.4544803 0,12.4090203 0,12.5597372 L0,14.5692951 C0,15.3731183 0.25862069,15.9759857 0.724137931,16.4281362 C1.13793103,16.8300478 1.70689655,16.9807646 2.06896552,17.0310036 C2.17241379,19.1410394 3.05172414,21.2008363 4.60344828,22.9089606 L4.13793103,24.466368 C4.0862069,24.6673238 4.13793103,24.8180406 4.29310345,24.9687575 L6.36206897,26.9783154 C6.56896552,27.1792712 6.87931034,27.1792712 7.0862069,26.9783154 L8.43103448,25.6721027 C10.4482759,26.6266428 12.6724138,27.1290323 15,27.1290323 C17.3275862,27.1290323 19.5517241,26.6266428 21.5689655,25.6721027 L22.9137931,26.9783154 C23.0172414,27.0787933 23.1724138,27.1290323 23.2758621,27.1290323 C23.3793103,27.1290323 23.5344828,27.0787933 23.637931,26.9783154 L25.7068966,24.9687575 C25.862069,24.8180406 25.9137931,24.6673238 25.862069,24.466368 L25.3448276,22.9089606 C26.3275862,21.8539427 27,20.6984468 27.4655172,19.4424731 C27.5172414,19.2415173 27.7241379,19.0908005 27.9310345,19.0908005 L28.4482759,19.0908005 C29.3275862,19.0908005 30,18.4376941 30,17.583632 L30,15.5740741 C30,14.7200119 29.3275862,14.0669056 28.4482759,14.0669056 Z M28.9655172,17.583632 C28.9655172,17.8850657 28.7586207,18.0860215 28.4482759,18.0860215 L27.9310345,18.0860215 C27.2586207,18.0860215 26.6896552,18.4879331 26.4827586,19.0908005 C26.0689655,20.2965352 25.3448276,21.4017921 24.4137931,22.4065711 C24.3103448,22.5572879 24.2586207,22.7080048 24.3103448,22.9089606 L24.7758621,24.466368 L23.2758621,25.9232975 L22.0344828,24.7175627 C21.8793103,24.5668459 21.6206897,24.5166069 21.4137931,24.6170848 C19.5,25.6218638 17.2758621,26.1242533 15,26.1242533 C12.7241379,26.1242533 10.5,25.6218638 8.5862069,24.6170848 C8.53448276,24.5668459 8.43103448,24.5668459 8.32758621,24.5668459 C8.17241379,24.5668459 8.06896552,24.6170848 7.96551724,24.7175627 L6.72413793,25.9232975 L5.22413793,24.466368 L5.68965517,22.9089606 C5.74137931,22.7582437 5.68965517,22.5572879 5.5862069,22.4065711 C3.98275862,20.7486858 3.10344828,18.7391278 3.10344828,16.578853 C3.10344828,14.7200119 3.77586207,12.9616487 5.01724138,11.4042413 C6.4137931,12.4592593 8.06896552,13.0621266 9.82758621,13.0621266 C13.4482759,13.0621266 16.5517241,10.6506571 17.3793103,7.2344086 C17.7931034,7.28464755 18.1551724,7.38512545 18.5172414,7.48560335 C18.6724138,7.53584229 18.8793103,7.48560335 19.0344828,7.3348865 L20.6896552,5.72724014 L20.6896552,7.88751493 C20.6896552,8.08847073 20.7931034,8.23918757 21,8.33966547 C23.6896552,9.59563919 25.6551724,11.6554361 26.4827586,14.0669056 C26.6896552,14.669773 27.2586207,15.0716846 27.9310345,15.0716846 L28.4482759,15.0716846 C28.7586207,15.0716846 28.9655172,15.2726404 28.9655172,15.5740741 L28.9655172,17.583632 Z" id="Shape" fill="#191B44" fill-rule="nonzero"></path>
                            <path d="M9.82758621,9.04301075 C11.8448276,9.04301075 13.4482759,7.48560335 13.4482759,5.52628435 C13.4482759,5.22485066 13.2413793,5.02389486 12.9310345,5.02389486 C12.6206897,5.02389486 12.4137931,5.22485066 12.4137931,5.52628435 C12.4137931,6.93297491 11.2758621,8.03823178 9.82758621,8.03823178 C9.51724138,8.03823178 9.31034483,8.23918757 9.31034483,8.54062127 C9.31034483,8.84205496 9.51724138,9.04301075 9.82758621,9.04301075 Z" id="Shape" fill="#191B44" fill-rule="nonzero"></path>
                        </g>
                    </g>
                </g>
            </g>
        </g>
    </g>
</svg>