<?xml version="1.0" encoding="UTF-8"?>
<svg width="27px" height="30px" viewBox="0 0 27 30" version="1.1" xmlns="http://www.w3.org/2000/svg" xmlns:xlink="http://www.w3.org/1999/xlink">
    <g id="Symbols" stroke="none" stroke-width="1" fill="none" fill-rule="evenodd">
        <g id="Icons/Coin" fill-rule="nonzero">
            <g>
                <ellipse id="Oval" fill="#00F2A9" cx="13.5" cy="17.5" rx="13.5" ry="12.5"></ellipse>
                <path d="M13.5,27 C20.9769231,27 27,20.9769231 27,13.5 C27,6.02307692 20.9769231,0 13.5,0 C6.02307692,0 0,6.02307692 0,13.5 C0,20.9769231 6.02307692,27 13.5,27 Z M13.5,2.07692308 C19.8346154,2.07692308 24.9230769,7.16538462 24.9230769,13.5 C24.9230769,19.8346154 19.8346154,24.9230769 13.5,24.9230769 C7.16538462,24.9230769 2.07692308,19.8346154 2.07692308,13.5 C2.07692308,7.16538462 7.16538462,2.07692308 13.5,2.07692308 Z" id="Shape" fill="#191B44"></path>
                <path d="M15,16.3333333 L9,16.3333333 C8.4,16.3333333 8,16.7777778 8,17.4444444 C8,18.1111111 8.4,18.5555556 9,18.5555556 L12,18.5555556 L12,21.8888889 C12,22.5555556 12.4,23 13,23 C13.6,23 14,22.5555556 14,21.8888889 L14,18.5555556 L15,18.5555556 C16.7,18.5555556 18,17.1111111 18,15.2222222 C18,13.3333333 16.7,11.8888889 15,11.8888889 L11,11.8888889 C10.4,11.8888889 10,11.4444444 10,10.7777778 C10,10.1111111 10.4,9.66666667 11,9.66666667 L17,9.66666667 C17.6,9.66666667 18,9.22222222 18,8.55555556 C18,7.88888889 17.6,7.44444444 17,7.44444444 L14,7.44444444 L14,4.11111111 C14,3.44444444 13.6,3 13,3 C12.4,3 12,3.44444444 12,4.11111111 L12,7.44444444 L11,7.44444444 C9.3,7.44444444 8,8.88888889 8,10.7777778 C8,12.6666667 9.3,14.1111111 11,14.1111111 L15,14.1111111 C15.6,14.1111111 16,14.5555556 16,15.2222222 C16,15.8888889 15.6,16.3333333 15,16.3333333 Z" id="Shape" fill="#191B44"></path>
            </g>
        </g>
    </g>
</svg>