<?xml version="1.0" encoding="UTF-8"?>
<svg width="142px" height="60px" viewBox="0 0 142 60" version="1.1" xmlns="http://www.w3.org/2000/svg" xmlns:xlink="http://www.w3.org/1999/xlink">
    <!-- Generator: Sketch 48.2 (47327) - http://www.bohemiancoding.com/sketch -->
    <title>Logo</title>
    <desc>Created with Sketch.</desc>
    <defs>
        <polygon id="path-1" points="0.809895855 0.352971429 44.6210333 0.352971429 44.6210333 40.2855998 0.809895855 40.2855998"></polygon>
    </defs>
    <g id="0.0.-Welcome-Screen---Empty-Bills-List" stroke="none" stroke-width="1" fill="none" fill-rule="evenodd" transform="translate(-648.000000, -160.000000)">
        <g id="Body" transform="translate(110.000000, -14.000000)">
            <g id="Logo" transform="translate(538.000000, 174.000000)">
                <g>
                    <polygon id="Fill-1" fill="#00F2A9" points="65.0847458 54.6268298 65.0847458 58.9830508 76.2711864 58.9830508 76.2711864 43.7288136"></polygon>
                    <g id="Group-17">
                        <g id="Group-4" transform="translate(96.916479, 18.857143)">
                            <mask id="mask-2" fill="white">
                                <use xlink:href="#path-1"></use>
                            </mask>
                            <g id="Clip-3"></g>
                            <path d="M38.1364631,0.352971429 L26.7114682,3.74725714 L26.7114682,8.99382857 L23.0423647,8.99382857 L22.3888217,8.99382857 L16.5575373,8.99382857 L16.5575373,0.352971429 L5.13340004,3.74725714 L5.13340004,8.99382857 L0.809895855,8.99382857 L0.809895855,19.8564 L5.13340004,19.8564 L5.13340004,27.1386857 C5.13340004,37.6318286 9.88831121,41.7049714 23.0423647,39.8535429 L23.0423647,29.6081143 C18.8432224,29.8549714 16.5575373,29.7315429 16.5575373,26.5224 L16.5575373,19.8564 L22.3888217,19.8564 L23.0423647,19.8564 L26.7114682,19.8564 L26.7114682,27.1386857 C26.7114682,37.6318286 31.4672371,41.7049714 44.6212906,39.8535429 L44.6212906,29.6081143 C40.4221483,29.8549714 38.1364631,29.7315429 38.1364631,26.5224 L38.1364631,19.8564 L44.6212906,19.8564 L44.6212906,8.99382857 L38.1364631,8.99382857 L38.1364631,0.352971429 Z" id="Fill-2" fill="#00F2A9" mask="url(#mask-2)"></path>
                        </g>
                        <polygon id="Fill-5" fill="#00F2A9" points="81.9793343 38.7612 81.9793343 58.7103429 93.4043292 58.7103429 93.4043292 28.1232"></polygon>
                        <polygon id="Fill-7" fill="#1C4BFB" points="82.3151971 31.4779714 82.3151971 1.3134 70.8902022 1.3134 70.8902022 42.1159714"></polygon>
                        <path d="M93.4916398,13.1632286 C96.8880049,13.1632286 99.7912109,10.2626571 99.7912109,6.86751429 C99.7912109,3.47322857 96.8880049,0.572657143 93.4916398,0.572657143 C90.0335226,0.572657143 87.1303165,3.47322857 87.1303165,6.86751429 C87.1303165,10.2626571 90.0335226,13.1632286 93.4916398,13.1632286" id="Fill-9" fill="#1C4BFB"></path>
                        <polygon id="Fill-11" fill="#1C4BFB" points="87.7484378 26.4188571 99.1734327 15.7808571 99.1734327 15.5082857 87.7484378 15.5082857"></polygon>
                        <path d="M12.9073024,24.5814857 C12.9073024,23.7783429 13.5865755,23.2854857 14.8216173,23.2854857 C16.1801634,23.2854857 17.4769573,24.0260571 18.2797345,25.8774857 L27.7286624,22.4832 C25.2585787,16.5577714 20.4419155,14.6446286 14.3276006,14.6446286 C8.15239126,14.6446286 1.54320196,18.1006286 1.54320196,25.2603429 C1.54320196,36.5549143 16.4271717,34.1480571 16.4271717,37.2337714 C16.4271717,38.0977714 15.6243945,38.5914857 14.3276006,38.5914857 C12.2897815,38.5914857 10.8077313,37.7274857 9.94234429,35.4440571 L0.000257300388,39.8874857 C2.47034103,45.4426286 7.59576475,47.2323429 14.4511048,47.2323429 C20.2558015,47.2323429 28.3461834,44.9489143 28.3461834,36.5549143 C28.3461834,24.5197714 12.9073024,27.7289143 12.9073024,24.5814857" id="Fill-13" fill="#1C4BFB"></path>
                        <path d="M49.8967204,25.1369143 C53.2321911,25.1369143 55.3935144,27.6672 55.3935144,30.9389143 C55.3935144,34.2097714 53.2321911,36.7400571 49.8967204,36.7400571 C46.5621074,36.7400571 44.3999265,34.2097714 44.3999265,30.9389143 C44.3999265,27.6672 46.5621074,25.1369143 49.8967204,25.1369143 Z M44.3999265,43.5912 C46.2533469,45.8746286 48.970439,47.2323429 52.6755646,47.2323429 C61.074707,47.2323429 66.8185093,40.2586286 66.8185093,30.9389143 C66.8185093,21.6192 61.074707,14.6446286 52.6755646,14.6446286 C48.970439,14.6446286 46.2533469,16.0023429 44.3999265,18.2857714 L44.3999265,15.5086286 L32.9757893,15.5086286 L32.9757893,58.7120571 L44.3999265,58.7120571 L44.3999265,43.5912 Z" id="Fill-15" fill="#1C4BFB"></path>
                    </g>
                </g>
            </g>
        </g>
    </g>
</svg>